<svg xmlns="http://www.w3.org/2000/svg" width="24" height="24" viewBox="0 0 24 24">
    <g fill="none" fill-rule="evenodd">
        <g fill="#0B30AA">
            <g>
                <g>
                    <g>
                        <path d="M22.22 5.143L17.35.93l-1.365 1.67 4.87 4.215 1.365-1.67zM7.273 2.6L5.918.93l-4.87 4.203 1.366 1.67L7.274 2.6zm4.89 5.034h-1.587v6.55l5.028 3.112.794-1.343-4.234-2.587V7.633zm-.529-4.368c-5.26 0-9.527 4.4-9.527 9.827 0 5.426 4.256 9.826 9.527 9.826 5.261 0 9.527-4.4 9.527-9.826 0-5.427-4.266-9.827-9.527-9.827zm0 17.47c-4.096 0-7.41-3.418-7.41-7.643 0-4.226 3.314-7.643 7.41-7.643 4.097 0 7.41 3.417 7.41 7.643 0 4.225-3.313 7.643-7.41 7.643z" transform="translate(-599 -1511) translate(150 1491) translate(430) translate(19.39 20)"/>
                    </g>
                </g>
            </g>
        </g>
    </g>
</svg>
