<svg xmlns="http://www.w3.org/2000/svg" width="638" height="552" viewBox="0 0 638 552">
    <defs>
        <filter id="s9pc37tqqa" width="315.4%" height="431.2%" x="-107.7%" y="-165.6%" filterUnits="objectBoundingBox">
            <feOffset dx="37" dy="44" in="SourceAlpha" result="shadowOffsetOuter1"/>
            <feGaussianBlur in="shadowOffsetOuter1" result="shadowBlurOuter1" stdDeviation="47"/>
            <feColorMatrix in="shadowBlurOuter1" result="shadowMatrixOuter1" values="0 0 0 0 0.0361905575 0 0 0 0 0.0822124354 0 0 0 0 0.171818388 0 0 0 0.256036932 0"/>
            <feMerge>
                <feMergeNode in="shadowMatrixOuter1"/>
                <feMergeNode in="SourceGraphic"/>
            </feMerge>
        </filter>
    </defs>
    <g fill="none" fill-rule="evenodd">
        <g>
            <g>
                <g>
                    <g filter="url(#s9pc37tqqa)" transform="translate(34 -615) translate(0 -2) translate(115 717) translate(47 96)">
                        <rect width="246" height="160" fill="#397DFA" rx="19"/>
                        <text fill="#F7FBFF" font-family="Rubik-Medium, Rubik" font-size="13" font-weight="400">
                            <tspan x="30" y="32">Concentration rate</tspan>
                        </text>
                        <text fill="#F7FBFF" font-family="Rubik-Medium, Rubik" font-size="14" font-weight="400">
                            <tspan x="30" y="59">Normal</tspan>
                        </text>
                        <g>
                            <text fill="#F7FBFF" font-family="Helvetica" font-size="12" transform="translate(29 76)">
                                <tspan x="1.163" y="67">0</tspan>
                            </text>
                            <text fill="#F7FBFF" font-family="Helvetica" font-size="12" transform="translate(29 76)">
                                <tspan x="61.826" y="67">30</tspan>
                            </text>
                            <text fill="#F7FBFF" font-family="Helvetica" font-size="12" transform="translate(29 76)">
                                <tspan x="141.326" y="67">60</tspan>
                            </text>
                            <g fill="#9BBCFF" opacity=".452" transform="translate(29 76) translate(2)">
                                <rect width="3" height="51" rx="1.5"/>
                                <rect width="3" height="51" x="16" rx="1.5"/>
                                <rect width="3" height="51" x="32" rx="1.5"/>
                                <rect width="3" height="51" x="48" rx="1.5"/>
                                <rect width="3" height="51" x="64" rx="1.5"/>
                                <rect width="3" height="51" x="80" rx="1.5"/>
                                <rect width="3" height="51" x="95" rx="1.5"/>
                                <rect width="3" height="51" x="111" rx="1.5"/>
                                <rect width="3" height="51" x="127" rx="1.5"/>
                                <rect width="3" height="51" x="143" rx="1.5"/>
                            </g>
                            <g fill="#F7FBFF" transform="translate(29 76) translate(2 7)">
                                <rect width="3" height="16" y="28" rx="1.5"/>
                                <rect width="3" height="34" x="16" y="10" rx="1.5"/>
                                <rect width="3" height="30" x="32" y="14" rx="1.5"/>
                                <rect width="3" height="41" x="48" y="3" rx="1.5"/>
                                <rect width="3" height="44" x="64" rx="1.5"/>
                                <rect width="3" height="32" x="80" y="12" rx="1.5"/>
                                <rect width="3" height="36" x="95" y="8" rx="1.5"/>
                                <rect width="3" height="44" x="111" rx="1.5"/>
                                <rect width="3" height="29" x="127" y="15" rx="1.5"/>
                                <rect width="3" height="25" x="143" y="19" rx="1.5"/>
                            </g>
                        </g>
                    </g>
                </g>
            </g>
        </g>
    </g>
</svg>
