<svg xmlns="http://www.w3.org/2000/svg" width="640" height="554" viewBox="0 0 640 554">
    <defs>
        <linearGradient id="qmrzhpuqbb" x1="100%" x2="0%" y1="52.618%" y2="52.618%">
            <stop offset="0%" stop-color="#FFF" stop-opacity="0"/>
            <stop offset="19.826%" stop-color="#FFF" stop-opacity=".8"/>
            <stop offset="50.08%" stop-color="#FFF"/>
            <stop offset="79.965%" stop-color="#FFF" stop-opacity=".8"/>
            <stop offset="100%" stop-color="#FFF" stop-opacity="0"/>
        </linearGradient>
        <filter id="7nsumelxxa" width="322.4%" height="441.9%" x="-111.2%" y="-170.9%" filterUnits="objectBoundingBox">
            <feOffset dx="-14" dy="39" in="SourceAlpha" result="shadowOffsetOuter1"/>
            <feGaussianBlur in="shadowOffsetOuter1" result="shadowBlurOuter1" stdDeviation="57"/>
            <feColorMatrix in="shadowBlurOuter1" result="shadowMatrixOuter1" values="0 0 0 0 0.0172873747 0 0 0 0 0.0856198122 0 0 0 0 0.218665082 0 0 0 0.314903846 0"/>
            <feMerge>
                <feMergeNode in="shadowMatrixOuter1"/>
                <feMergeNode in="SourceGraphic"/>
            </feMerge>
        </filter>
    </defs>
    <g fill="none" fill-rule="evenodd">
        <g>
            <g>
                <g>
                    <g filter="url(#7nsumelxxa)" transform="translate(-864 -664) translate(0 -2) translate(115 717) translate(946 146)">
                        <rect width="246" height="160" fill="#5D3FC5" rx="19"/>
                        <text fill="#F7FBFF" font-family="Rubik-Medium, Rubik" font-size="13" font-weight="400">
                            <tspan x="30" y="36">Current heart rate</tspan>
                        </text>
                        <text fill="#F7FBFF" fill-opacity=".6" font-family="Helvetica" font-size="13">
                            <tspan x="113" y="118">bpm</tspan>
                        </text>
                        <text fill="#F7FBFF" font-family="Rubik-Medium, Rubik" font-size="44" font-weight="400">
                            <tspan x="30" y="116">124</tspan>
                        </text>
                        <path stroke="url(#qmrzhpuqbb)" stroke-linecap="round" d="M133 90.171h21c2.718 0 4.224-20.066 7.038-20.066 2.815 0 3.907 47.152 7.544 47.152 3.638 0 3.045-67.1 6.273-67.1 3.227 0 5.684 38.421 8.017 38.421 2.334 0 3.152-15.351 5.491-15.351 2.34 0 4.033 33.273 6.398 33.273 2.365 0 2.411-42.815 5.164-42.815 2.752 0 4.081 26.486 7.2 26.486h20.68"/>
                    </g>
                </g>
            </g>
        </g>
    </g>
</svg>
