<svg xmlns="http://www.w3.org/2000/svg" xmlns:xlink="http://www.w3.org/1999/xlink" width="1180" height="408" viewBox="0 0 1180 408">
    <defs>
        <filter id="884j39h4ia" width="123.3%" height="314.7%" x="-11.7%" y="-60.7%" filterUnits="objectBoundingBox">
            <feMorphology in="SourceAlpha" radius="10" result="shadowSpreadOuter1"/>
            <feOffset dy="50" in="shadowSpreadOuter1" result="shadowOffsetOuter1"/>
            <feGaussianBlur in="shadowOffsetOuter1" result="shadowBlurOuter1" stdDeviation="40"/>
            <feColorMatrix in="shadowBlurOuter1" values="0 0 0 0 0 0 0 0 0 0 0 0 0 0 0 0 0 0 0.5 0"/>
        </filter>
        <filter id="ubbbsf51jc" width="257.5%" height="647.8%" x="-78.8%" y="-195.7%" filterUnits="objectBoundingBox">
            <feOffset dy="36" in="SourceAlpha" result="shadowOffsetOuter1"/>
            <feGaussianBlur in="shadowOffsetOuter1" result="shadowBlurOuter1" stdDeviation="36"/>
            <feColorMatrix in="shadowBlurOuter1" values="0 0 0 0 1 0 0 0 0 0.545098039 0 0 0 0 0.0784313725 0 0 0 0.5 0"/>
        </filter>
        <filter id="xp7fqd1lme" width="396.2%" height="943.5%" x="-148.1%" y="-378.3%" filterUnits="objectBoundingBox">
            <feOffset dy="18" in="SourceAlpha" result="shadowOffsetOuter1"/>
            <feGaussianBlur in="shadowOffsetOuter1" result="shadowBlurOuter1" stdDeviation="22"/>
            <feColorMatrix in="shadowBlurOuter1" result="shadowMatrixOuter1" values="0 0 0 0 0.0146458647 0 0 0 0 0.0597829473 0 0 0 0 0.271116395 0 0 0 0.0861013986 0"/>
            <feMerge>
                <feMergeNode in="shadowMatrixOuter1"/>
                <feMergeNode in="SourceGraphic"/>
            </feMerge>
        </filter>
        <filter id="yinm7e8ujf" width="287.2%" height="634%" x="-93.6%" y="-223.4%" filterUnits="objectBoundingBox">
            <feMorphology in="SourceAlpha" radius="7.5" result="shadowSpreadOuter1"/>
            <feOffset dy="20" in="shadowSpreadOuter1" result="shadowOffsetOuter1"/>
            <feGaussianBlur in="shadowOffsetOuter1" result="shadowBlurOuter1" stdDeviation="45"/>
            <feColorMatrix in="shadowBlurOuter1" values="0 0 0 0 0.0628213278 0 0 0 0 0.0654040706 0 0 0 0 0.134341033 0 0 0 0.336237981 0"/>
        </filter>
        <filter id="o20p2yxg4h" width="357%" height="943.5%" x="-128.5%" y="-378.3%" filterUnits="objectBoundingBox">
            <feOffset dy="18" in="SourceAlpha" result="shadowOffsetOuter1"/>
            <feGaussianBlur in="shadowOffsetOuter1" result="shadowBlurOuter1" stdDeviation="22"/>
            <feColorMatrix in="shadowBlurOuter1" result="shadowMatrixOuter1" values="0 0 0 0 0.0146458647 0 0 0 0 0.0597829473 0 0 0 0 0.271116395 0 0 0 0.0861013986 0"/>
            <feMerge>
                <feMergeNode in="shadowMatrixOuter1"/>
                <feMergeNode in="SourceGraphic"/>
            </feMerge>
        </filter>
        <filter id="f0u6u46u4i" width="262.8%" height="634%" x="-81.4%" y="-223.4%" filterUnits="objectBoundingBox">
            <feMorphology in="SourceAlpha" radius="7.5" result="shadowSpreadOuter1"/>
            <feOffset dy="20" in="shadowSpreadOuter1" result="shadowOffsetOuter1"/>
            <feGaussianBlur in="shadowOffsetOuter1" result="shadowBlurOuter1" stdDeviation="45"/>
            <feColorMatrix in="shadowBlurOuter1" values="0 0 0 0 0.0628213278 0 0 0 0 0.0654040706 0 0 0 0 0.134341033 0 0 0 0.336237981 0"/>
        </filter>
        <filter id="y3c3in9q2k" width="191.9%" height="943.5%" x="-46%" y="-378.3%" filterUnits="objectBoundingBox">
            <feOffset dy="18" in="SourceAlpha" result="shadowOffsetOuter1"/>
            <feGaussianBlur in="shadowOffsetOuter1" result="shadowBlurOuter1" stdDeviation="22"/>
            <feColorMatrix in="shadowBlurOuter1" result="shadowMatrixOuter1" values="0 0 0 0 0.0146458647 0 0 0 0 0.0597829473 0 0 0 0 0.271116395 0 0 0 0.0861013986 0"/>
            <feMerge>
                <feMergeNode in="shadowMatrixOuter1"/>
                <feMergeNode in="SourceGraphic"/>
            </feMerge>
        </filter>
        <filter id="pglprhycpl" width="158.2%" height="634%" x="-29.1%" y="-223.4%" filterUnits="objectBoundingBox">
            <feMorphology in="SourceAlpha" radius="7.5" result="shadowSpreadOuter1"/>
            <feOffset dy="20" in="shadowSpreadOuter1" result="shadowOffsetOuter1"/>
            <feGaussianBlur in="shadowOffsetOuter1" result="shadowBlurOuter1" stdDeviation="45"/>
            <feColorMatrix in="shadowBlurOuter1" values="0 0 0 0 0.0628213278 0 0 0 0 0.0654040706 0 0 0 0 0.134341033 0 0 0 0.336237981 0"/>
        </filter>
        <filter id="q24mgl06un" width="373.6%" height="653.5%" x="-136.8%" y="-276.7%" filterUnits="objectBoundingBox">
            <feOffset dy="18" in="SourceAlpha" result="shadowOffsetOuter1"/>
            <feGaussianBlur in="shadowOffsetOuter1" result="shadowBlurOuter1" stdDeviation="22"/>
            <feColorMatrix in="shadowBlurOuter1" result="shadowMatrixOuter1" values="0 0 0 0 0.0146458647 0 0 0 0 0.0597829473 0 0 0 0 0.271116395 0 0 0 0.0861013986 0"/>
            <feMerge>
                <feMergeNode in="shadowMatrixOuter1"/>
                <feMergeNode in="SourceGraphic"/>
            </feMerge>
        </filter>
        <rect id="0y452v8rmb" width="986" height="107.116" x=".297" y=".908" rx="10"/>
        <rect id="zk7b57tivd" width="160" height="46" x="0" y="0" rx="6"/>
        <rect id="mwaifnh33g" width="130.894" height="45.879" x="0" y="0" rx="6"/>
        <rect id="youc41a53j" width="150.486" height="45.879" x="0" y="0" rx="6"/>
        <rect id="udfmtepkcm" width="421.081" height="45.879" x="0" y="0" rx="6"/>
    </defs>
    <g fill="none" fill-rule="evenodd">
        <g>
            <g>
                <g>
                    <g>
                        <g transform="translate(-94 -266) translate(0 -2) translate(226 356) translate(.703 58.092)">
                            <use fill="#000" filter="url(#884j39h4ia)" xlink:href="#0y452v8rmb"/>
                            <use fill="#FFF" xlink:href="#0y452v8rmb"/>
                        </g>
                        <g>
                            <g transform="translate(-94 -266) translate(0 -2) translate(226 356) translate(.703 58.092) translate(796.297 30.908)">
                                <use fill="#000" filter="url(#ubbbsf51jc)" xlink:href="#zk7b57tivd"/>
                                <use fill="#FF8B14" xlink:href="#zk7b57tivd"/>
                            </g>
                            <text fill="#FFF" font-family="CasperBold, Casper Bold" font-size="16" font-weight="bold" letter-spacing="1" transform="translate(-94 -266) translate(0 -2) translate(226 356) translate(.703 58.092) translate(796.297 30.908)">
                                <tspan x="51" y="28">Search</tspan>
                            </text>
                        </g>
                        <g filter="url(#xp7fqd1lme)" transform="translate(-94 -266) translate(0 -2) translate(226 356) translate(.703 58.092) translate(645 31.045)">
                            <g>
                                <use fill="#000" filter="url(#yinm7e8ujf)" xlink:href="#mwaifnh33g"/>
                                <use fill="#FFF" xlink:href="#mwaifnh33g"/>
                            </g>
                            <g>
                                <text fill="#6E7083" font-family="Casper" font-size="9" opacity=".738" transform="translate(11.685 10.146)">
                                    <tspan x="0" y="8">Weight in KG</tspan>
                                </text>
                                <text fill="#1F1E56" font-family="CasperBold, Casper Bold" font-size="11" font-weight="bold" transform="translate(11.685 10.146)">
                                    <tspan x="18" y="24">300</tspan>
                                </text>
                            </g>
                            <g fill="#0B30AA" fill-rule="nonzero">
                                <path d="M10.828 1.94V.325c0-.177-.142-.32-.317-.32H.317C.142.005 0 .148 0 .325V1.94h10.828zM4.777 4.518h1.274c.177 0 .32-.145.32-.324 0-.178-.143-.323-.32-.323H4.777c-.176 0-.32.145-.32.323 0 .179.144.324.32.324z" transform="translate(12.362 26.706)"/>
                                <path d="M.637 2.581v5.481c0 .177.142.321.317.321h8.92c.175 0 .317-.144.317-.32V2.58H.637zm4.14.648h1.274c.526 0 .955.433.955.965 0 .533-.429.966-.955.966H4.777c-.526 0-.954-.433-.954-.966 0-.532.428-.965.954-.965z" transform="translate(12.362 26.706)"/>
                            </g>
                        </g>
                        <g filter="url(#o20p2yxg4h)" transform="translate(-94 -266) translate(0 -2) translate(226 356) translate(.703 58.092) translate(473.234 31.045)">
                            <g>
                                <use fill="#000" filter="url(#f0u6u46u4i)" xlink:href="#youc41a53j"/>
                                <use fill="#FFF" xlink:href="#youc41a53j"/>
                            </g>
                            <g>
                                <text fill="#6E7083" font-family="Casper" font-size="9" opacity=".738" transform="translate(11.623 10.146)">
                                    <tspan x="0" y="8">Goods name</tspan>
                                </text>
                                <text fill="#1F1E56" font-family="CasperBold, Casper Bold" font-size="11" font-weight="bold" transform="translate(11.623 10.146)">
                                    <tspan x="18" y="24">Seafood</tspan>
                                </text>
                                <g fill="#0B30AA" fill-rule="nonzero">
                                    <path d="M10.856 1.94V.325c0-.177-.142-.32-.318-.32H.318C.142.005 0 .148 0 .325V1.94h10.856zM4.79 4.518h1.277c.177 0 .32-.145.32-.324 0-.178-.143-.323-.32-.323H4.789c-.177 0-.32.145-.32.323 0 .179.143.324.32.324z" transform="translate(11.623 10.146) translate(0 16.56)"/>
                                    <path d="M.639 2.581v5.481c0 .177.142.321.318.321h8.942c.176 0 .318-.144.318-.32V2.58H.64zm4.15.648h1.278c.527 0 .957.433.957.965 0 .533-.43.966-.957.966H4.789c-.527 0-.957-.433-.957-.966 0-.532.43-.965.957-.965z" transform="translate(11.623 10.146) translate(0 16.56)"/>
                                </g>
                                <g fill="#1F1E56" fill-rule="nonzero">
                                    <path d="M5.327.103C5.26.034 5.181 0 5.09 0H.339C.247 0 .168.034.101.103.034.173 0 .253 0 .348c0 .094.034.176.1.244l2.375 2.435c.068.069.147.103.239.103s.171-.034.239-.103L5.327.592c.067-.068.101-.15.101-.244s-.034-.176-.1-.245z" transform="translate(11.623 10.146) translate(122.491 20.228)"/>
                                </g>
                            </g>
                        </g>
                        <g filter="url(#y3c3in9q2k)" transform="translate(-94 -266) translate(0 -2) translate(226 356) translate(.703 58.092) translate(31 31.037)">
                            <g>
                                <use fill="#000" filter="url(#pglprhycpl)" xlink:href="#udfmtepkcm"/>
                                <use fill="#FFF" xlink:href="#udfmtepkcm"/>
                            </g>
                            <g>
                                <text fill="#1F1E56" font-family="CasperBold, Casper Bold" font-size="11" font-weight="bold" transform="translate(247.38 10.146)">
                                    <tspan x="20" y="24">Spain - Barcelona (BCN)</tspan>
                                </text>
                                <text fill="#6E7083" font-family="Casper" font-size="9" opacity=".738" transform="translate(247.38 10.146)">
                                    <tspan x="0" y="8">Destination of shipment *</tspan>
                                </text>
                                <g fill-rule="nonzero">
                                    <g fill="#C42126">
                                        <path d="M.425 13.686c2.173 0 4.106-1.027 5.35-2.624H2.196c-.461 1.548-.719 2.624-1.772 2.624zM.063 13.71H.05h.013zM2.197 2.652h3.578C4.53 1.056 2.598.03.425.03c1.053 0 1.31 1.076 1.772 2.623zM.05.077h.013H.05z" transform="translate(247.38 10.146) translate(0 14.505) translate(6.366)"/>
                                    </g>
                                    <path fill="#FFC40C" d="M12.14 2.652H8.565c.721 2.42.721 5.991 0 8.41h3.576c.903-1.159 1.443-2.618 1.443-4.205 0-1.586-.54-3.045-1.442-4.205z" transform="translate(247.38 10.146) translate(0 14.505)"/>
                                    <g fill="#C42126">
                                        <path d="M1.002 13.736c-.319 0-.635-.014-.949-.04.319.025.636.04.949.04zM.053.091C.367.063.683.05 1.002.05.689.05.372.065.053.09z" transform="translate(247.38 10.146) translate(0 14.505) translate(6.366)"/>
                                    </g>
                                    <g fill="#D32030">
                                        <path d="M7.63 11.034H.008c1.165 1.496 2.936 2.492 4.942 2.611h.004c.133.008.268.012.403.012 1.052 0 1.81-1.076 2.271-2.623zM.009 2.623h7.62C7.167 1.076 6.41 0 5.358 0c-.135 0-.27.004-.403.012H4.95C2.945.132 1.174 1.127.01 2.623z" transform="translate(247.38 10.146) translate(0 14.505) translate(1.434 .029)"/>
                                    </g>
                                    <path fill="#FFD034" d="M0 6.857c0 1.587.54 3.046 1.443 4.205h7.62c.722-2.419.722-5.99 0-8.41h-7.62C.54 3.812 0 5.271 0 6.857z" transform="translate(247.38 10.146) translate(0 14.505)"/>
                                </g>
                            </g>
                            <g fill="#0B30AA" fill-rule="nonzero">
                                <path d="M11.42 2.16H.837c-.39 0-.748.336-.822.823-.1.656.293 1.232.79 1.232H11.42c.074 0 .134-.077.134-.171V2.332c0-.094-.06-.171-.134-.171zM16.215 3.312L12.68.174c-.081-.072-.194-.088-.29-.041-.096.047-.158.148-.158.259v6.277c0 .111.062.212.158.259.036.018.075.026.114.026.063 0 .126-.023.176-.067l3.534-3.139c.06-.054.096-.134.096-.218 0-.083-.035-.163-.096-.218zM3.92 6.296c-.096-.047-.21-.03-.29.041L.096 9.475C.036 9.53 0 9.61 0 9.693c0 .084.035.164.096.218L3.63 13.05c.05.044.113.067.176.067.039 0 .078-.008.114-.026.096-.047.158-.148.158-.26V6.556c0-.112-.062-.212-.158-.26zM15.616 9.83c-.075-.487-.433-.822-.823-.822H4.213c-.075 0-.135.077-.135.172v1.712c0 .094.06.17.134.17h10.613c.497 0 .89-.575.79-1.231z" transform="translate(200.138 16.328)"/>
                            </g>
                            <g>
                                <text fill="#6E7083" font-family="Casper" font-size="9" opacity=".738" transform="translate(7.893 10.146)">
                                    <tspan x="0" y="8">Origin of shipment *</tspan>
                                </text>
                                <text fill="#1F1E56" font-family="CasperBold, Casper Bold" font-size="11" font-weight="bold" transform="translate(7.893 10.146)">
                                    <tspan x="20" y="24">Italy - Rome Metropolit…</tspan>
                                </text>
                                <g fill-rule="nonzero">
                                    <path fill="#E63026" d="M9.056.391l-.793 2.214c.732 2.433.732 6.043 0 8.476l.793 2.214c2.637-.94 4.527-3.473 4.527-6.452S11.693 1.33 9.056.39z" transform="translate(7.893 10.146) translate(0 14.505)"/>
                                    <g fill="#E4E4E4">
                                        <path d="M2.288 2.605V.391C1.58.14.818.001.024.001 1.071 0-.38 3.575 2.288 2.604zM.024 13.686c.794 0 1.556-.138 2.264-.39V11.08C-.354 10.815.024 13.686.024 13.686z" transform="translate(7.893 10.146) translate(0 14.505) translate(6.767)"/>
                                    </g>
                                    <path fill="#359846" d="M0 6.843c0 2.99 1.903 5.529 4.554 6.461V.382C1.903 1.314 0 3.854 0 6.843z" transform="translate(7.893 10.146) translate(0 14.505)"/>
                                    <path fill="#EF4C4C" d="M9.056 2.605v8.476c.732-2.433.732-6.043 0-8.476z" transform="translate(7.893 10.146) translate(0 14.505)"/>
                                    <path fill="#F3F4F5" d="M9.056 11.081V2.605C8.593 1.067 7.839 0 6.792 0c-.785 0-1.537.136-2.238.382v12.922c.7.247 1.453.382 2.238.382 1.047 0 1.801-1.067 2.264-2.605z" transform="translate(7.893 10.146) translate(0 14.505)"/>
                                </g>
                            </g>
                        </g>
                    </g>
                    <g filter="url(#q24mgl06un)" transform="translate(-94 -266) translate(0 -2) translate(226 356) translate(.703 .092)">
                        <rect width="86.875" height="42.149" fill="#FFF" rx="6"/>
                        <g fill="#0B30AA" fill-rule="nonzero">
                            <path d="M23.566 18.815c0-.387-.309-.701-.69-.701h-3.688l1.59-5.65c.06-.212.018-.44-.113-.615-.13-.176-.334-.28-.55-.28h-1.106V7.41c0-.386-.309-.7-.69-.7-.381 0-.69.314-.69.7v4.16h-1.657c-.108 0-.213.026-.31.075l-1.694.86H.69c-.222 0-.43.109-.56.292-.13.183-.165.418-.095.632l1.539 4.686H.69c-.38 0-.69.314-.69.701 0 .387.31.701.69.701h22.186c.381 0 .69-.314.69-.701zm-9.896-3.506h1.381c.381 0 .69.314.69.701 0 .388-.309.702-.69.702h-1.38c-.382 0-.691-.314-.691-.702 0-.387.309-.7.69-.7zm-4.142 0h1.38c.382 0 .691.314.691.701 0 .388-.31.702-.69.702H9.528c-.382 0-.69-.314-.69-.702 0-.387.308-.7.69-.7zm-4.143 0h1.381c.381 0 .69.314.69.701 0 .388-.309.702-.69.702h-1.38c-.382 0-.691-.314-.691-.702 0-.387.309-.7.69-.7zM10.877 3.05v-.673c0-.372-.312-.673-.697-.673H8.553V.673C8.553.3 8.24 0 7.855 0c-.385 0-.697.301-.697.673v1.031H5.531c-.385 0-.697.301-.697.673v.672h6.043zM12.085 4.955c0-.379-.32-.686-.715-.686H3.737c-.395 0-.716.307-.716.686V6.1h9.064V4.955z" transform="translate(16.63 10.98)"/>
                            <path d="M13.294 8.67c0-.41-.309-.742-.69-.742H2.503c-.38 0-.69.333-.69.742v2.918h11.482V8.67z" transform="translate(16.63 10.98)"/>
                        </g>
                        <text fill="#1F1E56" font-family="CasperBold, Casper Bold" font-size="12" font-weight="bold">
                            <tspan x="48.398" y="24.541">Sea</tspan>
                        </text>
                    </g>
                    <g fill="#FFF" opacity=".3">
                        <g fill-rule="nonzero">
                            <path d="M30.2 10.63l-.494-1.187h-7.872V7.555h7.086l-1.34-3.22c-.142-.34-.453-.558-.797-.558h-4.95V2.203C21.834.988 20.92 0 19.797 0H2.038C.914 0 0 .988 0 2.203v12.591c0 1.215.914 2.204 2.038 2.204h1.869c.38 1.451 1.617 2.518 3.08 2.518s2.699-1.067 3.08-2.518h7.813c.381 1.451 1.618 2.518 3.08 2.518 1.464 0 2.7-1.067 3.08-2.518h4.199c1.123 0 2.037-.989 2.037-2.204v-3.777c0-.134-.026-.266-.077-.387zM6.986 17.627c-.803 0-1.456-.706-1.456-1.573 0-.868.653-1.574 1.456-1.574.802 0 1.455.706 1.455 1.574 0 .867-.653 1.573-1.455 1.573zm13.974 0c-.803 0-1.456-.706-1.456-1.573 0-.868.653-1.574 1.456-1.574.802 0 1.455.706 1.455 1.574 0 .867-.653 1.573-1.455 1.573z" transform="translate(-94 -266) translate(0 -2) translate(226 356) translate(117.917 .092) translate(16.675 10.98)"/>
                        </g>
                        <text font-family="CasperBold, Casper Bold" font-size="12" font-weight="bold" transform="translate(-94 -266) translate(0 -2) translate(226 356) translate(117.917 .092)">
                            <tspan x="55.196" y="24.621">Land</tspan>
                        </text>
                    </g>
                    <g fill="#FFF" opacity=".3">
                        <g fill-rule="nonzero">
                            <path d="M26.728 9.158c-.028-.043-.714-1.06-1.926-1.328-1.1-.243-3.606-.257-3.712-.257-.173-.001-.332-.015-.407-.025-.073-.064-.22-.22-.318-.35L15.447.646c-.107-.141-.323-.408-.46-.51-.237-.176-.84-.133-.908-.128l-.134.011c-.183.015-.512.054-.67.153-.092.06-.375.238-.114 1.107l1.882 6.262c-.028.002-2.697.003-2.697.003-.176 0-.338-.013-.414-.023-.074-.062-.228-.216-.329-.344l-1.734-2.2c-.013-.016-.302-.381-.484-.501-.245-.16-.714-.078-.72-.078-.133.027-.322.096-.441.189-.216.167-.252.533-.109 1.088.39 1.506.946 3.739.987 4.08-.041.342-.597 2.575-.987 4.081-.03.118-.127.518-.097.726.061.428.624.546.648.55.14.029.331.038.453.022.294-.038.676-.506.75-.599l1.734-2.201c.113-.143.227-.267.282-.32.092-.021.303-.047.461-.047l2.696.001c-.007.03-1.881 6.264-1.881 6.264-.056.188-.147.53-.122.724.04.31.345.49.906.536l.134.01c.085.007.21.014.334.014.123 0 .245-.006.326-.025.28-.065.665-.57.708-.626l4.919-6.552c.108-.144.218-.27.272-.327.092-.02.297-.047.452-.048.106 0 2.613-.014 3.712-.257 1.213-.268 1.898-1.285 1.927-1.328.225-.34.225-.855 0-1.195zM5.547 5.175H3.61c-.413 0-.748.386-.748.863 0 .476.335.862.748.862h1.938c.413 0 .748-.386.748-.862 0-.477-.335-.863-.748-.863zM5.547 11.5H3.61c-.413 0-.748.387-.748.863s.335.863.748.863h1.938c.413 0 .748-.387.748-.863s-.335-.862-.748-.862zM5.473 8.625H.823c-.455 0-.823.387-.823.863s.368.862.823.862h4.65c.454 0 .822-.386.822-.862s-.368-.863-.822-.863z" transform="translate(-94 -266) translate(0 -2) translate(226 356) translate(249.763 .092) translate(16.706 10.98)"/>
                        </g>
                        <text font-family="CasperBold, Casper Bold" font-size="12" font-weight="bold" transform="translate(-94 -266) translate(0 -2) translate(226 356) translate(249.763 .092)">
                            <tspan x="51.983" y="24.621">Air</tspan>
                        </text>
                    </g>
                </g>
            </g>
        </g>
    </g>
</svg>
