<svg xmlns="http://www.w3.org/2000/svg" width="18" height="22" viewBox="0 0 18 22">
    <g fill="none" fill-rule="evenodd">
        <g fill="#0B30AA">
            <g>
                <g>
                    <g>
                        <g>
                            <path d="M14.71 7.345h-1.013v-2.09c0-2.882-2.268-5.22-5.063-5.22-2.794 0-5.062 2.338-5.062 5.22v2.09H2.559c-1.114 0-2.025.94-2.025 2.088v10.444c0 1.149.911 2.088 2.025 2.088h12.15c1.114 0 2.026-.94 2.026-2.088V9.433c0-1.149-.912-2.088-2.025-2.088zm-6.076 9.399c-1.113 0-2.025-.94-2.025-2.089s.912-2.089 2.025-2.089c1.114 0 2.025.94 2.025 2.089s-.91 2.089-2.025 2.089zm3.14-9.4H5.495V5.257c0-1.786 1.407-3.238 3.138-3.238 1.732 0 3.14 1.452 3.14 3.238v2.089z" transform="translate(-602 -1766) translate(150 1491) translate(430) translate(0 254) translate(22.39 21)"/>
                        </g>
                    </g>
                </g>
            </g>
        </g>
    </g>
</svg>
