<svg xmlns="http://www.w3.org/2000/svg" width="20" height="24" viewBox="0 0 20 24">
    <g fill="none" fill-rule="evenodd">
        <g fill="#0B30AA">
            <g>
                <g>
                    <g>
                        <g>
                            <path d="M9.844 23.474c1.23 0 2.236-1.038 2.236-2.306H7.608c0 1.268.995 2.306 2.236 2.306zm6.707-6.918V10.79c0-3.54-1.833-6.503-5.03-7.287V2.72c0-.957-.75-1.73-1.677-1.73-.928 0-1.677.773-1.677 1.73v.784c-3.208.784-5.03 3.736-5.03 7.287v5.765L.901 18.862v1.153h17.886v-1.153l-2.236-2.306z" transform="translate(-981 -1511) translate(150 1491) translate(430) translate(380) translate(21.39 20)"/>
                        </g>
                    </g>
                </g>
            </g>
        </g>
    </g>
</svg>
