<svg xmlns="http://www.w3.org/2000/svg" width="24" height="24" viewBox="0 0 24 24">
    <g fill="none" fill-rule="evenodd">
        <g fill="#0B30AA">
            <g>
                <g>
                    <g>
                        <g>
                            <path d="M18.288 17.238c-.843 0-1.597.344-2.173.881l-7.907-4.747c.055-.263.1-.526.1-.8 0-.275-.045-.538-.1-.801l7.818-4.701c.599.572 1.386.926 2.262.926 1.841 0 3.327-1.532 3.327-3.431s-1.486-3.431-3.327-3.431c-1.84 0-3.327 1.532-3.327 3.431 0 .275.045.538.1.8l-7.818 4.702c-.599-.572-1.386-.927-2.262-.927-1.841 0-3.327 1.533-3.327 3.432 0 1.898 1.486 3.431 3.327 3.431.876 0 1.663-.354 2.262-.926l7.896 4.758c-.056.24-.09.492-.09.743 0 1.842 1.454 3.34 3.24 3.34 1.785 0 3.237-1.498 3.237-3.34 0-1.841-1.452-3.34-3.238-3.34z" transform="translate(-979 -1765) translate(150 1491) translate(430) translate(380 254) translate(19.39 20)"/>
                        </g>
                    </g>
                </g>
            </g>
        </g>
    </g>
</svg>
