<svg xmlns="http://www.w3.org/2000/svg" width="16" height="16" viewBox="0 0 16 16">
    <g fill="none" fill-rule="evenodd">
        <path d="M0 0L16 0 16 16 0 16z"/>
        <path d="M0 0L16 0 16 16 0 16z"/>
        <path fill="#B5B5BE" d="M1.407 7.625C2.637 4.605 5.173 2.667 8 2.667s5.364 1.938 6.593 4.958c.098.24.098.51 0 .75-1.23 3.02-3.766 4.958-6.593 4.958s-5.364-1.938-6.593-4.958c-.098-.24-.098-.51 0-.75zM8 12.1c2.28 0 4.37-1.575 5.433-4.1C12.37 5.475 10.28 3.9 8 3.9 5.72 3.9 3.63 5.475 2.567 8 3.63 10.525 5.72 12.1 8 12.1zm0-1.67c-1.32 0-2.389-1.087-2.389-2.43 0-1.343 1.07-2.43 2.389-2.43 1.32 0 2.389 1.087 2.389 2.43 0 1.343-1.07 2.43-2.389 2.43zm0-1.233c.65 0 1.176-.536 1.176-1.197S8.65 6.803 8 6.803c-.65 0-1.176.536-1.176 1.197S7.35 9.197 8 9.197z"/>
    </g>
</svg>
